<svg width="407" height="80" viewBox="0 0 407 80" fill="none" xmlns="http://www.w3.org/2000/svg">
<g clip-path="url(#clip0_9_861)">
<path fill-rule="evenodd" clip-rule="evenodd" d="M150.427 1.29749L141.288 76.6395C141.181 77.5204 141.86 78.2979 142.737 78.2979H152.805C153.542 78.2979 154.164 77.7408 154.254 76.9997L163.393 1.6577C163.5 0.77678 162.821 0 161.944 0H151.876C151.139 0 150.518 0.556371 150.427 1.29749Z" fill="black"/>
<path fill-rule="evenodd" clip-rule="evenodd" d="M259.364 1.29749L250.224 76.6395C250.117 77.5204 250.796 78.2979 251.673 78.2979H261.741C262.479 78.2979 263.1 77.7408 263.19 76.9997L272.329 1.6577C272.436 0.77678 271.757 0 270.88 0H260.813C260.075 0 259.454 0.556371 259.364 1.29749Z" fill="black"/>
<path fill-rule="evenodd" clip-rule="evenodd" d="M0.335979 76.5281V69.2292C0.335979 68.4191 0.632096 67.7188 1.22931 67.1277C4.73004 63.4423 10.5769 56.8818 18.7721 47.444L25.9231 39.2603C32.775 31.3703 36.2025 25.4002 36.2025 21.3442C36.2025 18.3204 35.1219 15.8518 32.9622 13.9348C30.8012 12.0178 28.0073 11.0589 24.5827 11.0589C21.1553 11.0589 18.3813 12.0178 16.258 13.9348C14.1353 15.8518 13.074 18.3958 13.074 21.5647V23.9982C13.074 25.1782 12.4768 25.7665 11.2852 25.7665H1.7888C0.595793 25.7665 0 25.1782 0 23.9982V19.6858C0.14877 15.7045 1.30263 12.2397 3.46443 9.28914C5.62409 6.34212 8.54825 4.05594 12.2355 2.43272C15.9227 0.81302 20.0377 0 24.5827 0C29.5726 0 33.9289 0.922221 37.6553 2.76596C41.3795 4.60829 44.2474 7.134 46.2583 10.341C48.2699 13.548 49.2757 17.1418 49.2757 21.1223C49.2757 27.1685 46.0348 34.1363 39.5551 42.0227C37.1698 45.0472 34.3396 48.4007 31.0624 52.0875C27.7838 55.7743 24.5072 59.4258 21.23 63.0358L18.1016 66.4633C17.8781 66.6852 17.8026 66.8712 17.8781 67.0171C17.9514 67.165 18.1386 67.2376 18.4368 67.2376H49.2757C50.4666 67.2376 51.0638 67.8287 51.0638 69.0073V76.5281C51.0638 77.7068 50.4666 78.2979 49.2757 78.2979H2.12336C0.93106 78.2979 0.335979 77.7068 0.335979 76.5281Z" fill="black"/>
<path fill-rule="evenodd" clip-rule="evenodd" d="M69.7872 76.5079V1.78999C69.7872 0.597852 70.3935 0 71.6068 0H98.8959C104.277 0 109.016 0.933475 113.109 2.79615C117.201 4.66096 120.366 7.326 122.603 10.7927C124.838 14.2608 125.957 18.3068 125.957 22.93V55.3686C125.957 59.9925 124.838 64.0357 122.603 67.5023C120.366 70.9705 117.201 73.6376 113.109 75.5003C109.016 77.3665 104.277 78.2979 98.8959 78.2979H71.6068C70.3935 78.2979 69.7872 77.7 69.7872 76.5079ZM83.6596 67.1111H99.4638C103.481 67.1111 106.684 65.8641 109.072 63.3651C111.46 60.8668 112.691 57.532 112.767 53.3534V25.0549C112.767 20.8058 111.554 17.4318 109.129 14.9313C106.702 12.4345 103.443 11.1846 99.3508 11.1846H83.6596C83.2047 11.1846 82.9772 11.4091 82.9772 11.8566V66.4406C82.9772 66.8881 83.2047 67.1111 83.6596 67.1111Z" fill="black"/>
<mask id="mask0_9_861" style="mask-type:luminance" maskUnits="userSpaceOnUse" x="178" y="0" width="57" height="80">
<path fill-rule="evenodd" clip-rule="evenodd" d="M178.723 0H234.894V80H178.723V0Z" fill="white"/>
</mask>
<g mask="url(#mask0_9_861)">
<path fill-rule="evenodd" clip-rule="evenodd" d="M192.092 76.7023C187.822 74.5065 184.526 71.3952 182.206 67.3736C179.883 63.3513 178.723 58.7339 178.723 53.5194V26.4806C178.723 21.1921 179.883 16.5548 182.206 12.5694C184.526 8.58699 187.822 5.49498 192.092 3.29626C196.361 1.10039 201.303 -3.05176e-05 206.92 -3.05176e-05C212.462 -3.05176e-05 217.349 1.08046 221.581 3.24003C225.812 5.40102 229.088 8.34427 231.41 12.0662C233.731 15.7924 234.894 20.0012 234.894 24.6926V25.1396C234.894 26.3326 234.293 26.9262 233.096 26.9262H223.771C223.247 26.9262 222.816 26.8358 222.48 26.6479C222.142 26.4628 221.974 26.2201 221.974 25.9219V25.0279C221.974 21.0056 220.606 17.6915 217.874 15.0849C215.139 12.4783 211.488 11.1736 206.92 11.1736C202.352 11.1736 198.681 12.5331 195.91 15.2515C193.139 17.9719 191.754 21.565 191.754 26.0322V53.9649C191.754 58.435 193.214 62.0302 196.136 64.7485C199.057 67.4676 202.838 68.825 207.482 68.825C211.976 68.825 215.514 67.6519 218.099 65.3066C220.682 62.9605 221.974 59.7383 221.974 55.6412V48.8258C221.974 48.3788 221.749 48.156 221.3 48.156H208.044C206.845 48.156 206.246 47.5603 206.246 46.368V38.9939C206.246 37.8045 206.845 37.2073 208.044 37.2073H233.096C234.293 37.2073 234.894 37.8045 234.894 38.9939V52.8496C234.894 61.4145 232.366 68.0826 227.31 72.8473C222.255 77.6163 215.459 80 206.92 80C201.303 80 196.361 78.8996 192.092 76.7023Z" fill="black"/>
</g>
<path fill-rule="evenodd" clip-rule="evenodd" d="M342.128 3.49211V11.2093C342.128 12.4036 341.522 12.9986 340.315 12.9986H320.044C319.59 12.9986 319.364 13.2231 319.364 13.6705V78.21C319.364 79.4021 318.759 80 317.552 80H308.038C306.83 80 306.226 79.4021 306.226 78.21V13.6705C306.226 13.2231 306 12.9986 305.547 12.9986H286.067C284.859 12.9986 284.255 12.4036 284.255 11.2093V3.49211C284.255 2.29997 284.859 1.70212 286.067 1.70212H340.315C341.522 1.70212 342.128 2.29997 342.128 3.49211Z" fill="black"/>
<path fill-rule="evenodd" clip-rule="evenodd" d="M364.036 77.2055C359.736 75.3442 356.429 72.7198 354.114 69.3281C351.795 65.9399 350.638 62.0101 350.638 57.5408V55.1954C350.638 54.0038 351.235 53.4067 352.432 53.4067H361.625C362.821 53.4067 363.42 53.9647 363.42 55.0829V56.871C363.42 60.2975 364.933 63.1468 367.96 65.4182C370.987 67.6917 375.004 68.8248 380.013 68.8248C384.571 68.8248 388.009 67.8582 390.327 65.9214C392.643 63.9846 393.803 61.4905 393.803 58.4355C393.803 56.3499 393.167 54.5797 391.896 53.1283C390.625 51.6763 388.814 50.3531 386.459 49.1608C384.105 47.9693 380.573 46.4795 375.864 44.6929C370.556 42.7561 366.259 40.9317 362.971 39.2163C359.681 37.5037 356.934 35.1776 354.73 32.2329C352.525 29.2932 351.423 25.6246 351.423 21.2278C351.423 14.6751 353.814 9.49676 358.598 5.69791C363.381 1.89978 369.772 0 377.77 0C383.376 0 388.327 0.969464 392.626 2.90483C396.923 4.84305 400.267 7.54075 402.66 11.0051C405.051 14.4694 406.248 18.4732 406.248 23.0166V24.4679C406.248 25.6623 405.649 26.256 404.454 26.256H395.26C394.736 26.256 394.308 26.1271 393.971 25.8652C393.635 25.6047 393.466 25.2893 393.466 24.9164V23.6864C393.466 20.1851 392.026 17.2254 389.15 14.8039C386.272 12.3838 382.291 11.173 377.21 11.173C373.098 11.173 369.903 12.0293 367.623 13.7419C365.343 15.4573 364.204 17.876 364.204 21.0051C364.204 23.2408 364.801 25.0651 365.998 26.4802C367.193 27.8959 368.987 29.1807 371.379 30.3345C373.771 31.4905 377.471 32.9604 382.479 34.7491C387.785 36.7585 392.026 38.5857 395.204 40.2228C398.38 41.8621 401.108 44.1533 403.389 47.0937C405.668 50.0363 406.809 53.7056 406.809 58.0988C406.809 62.4208 405.686 66.2396 403.444 69.5523C401.202 72.8685 397.988 75.4367 393.803 77.2617C389.616 79.0875 384.682 80 379.003 80C373.322 80 368.333 79.0697 364.036 77.2055Z" fill="black"/>
</g>
<defs>
<clipPath id="clip0_9_861">
<rect width="407" height="80" fill="white"/>
</clipPath>
</defs>
</svg>
