<svg width="12" height="10" viewBox="0 0 12 10" fill="none" xmlns="http://www.w3.org/2000/svg">
<path d="M11.4336 5.70898L7.37109 9.77148C7.21875 9.92383 7.01562 10 6.8125 10C6.58398 10 6.38086 9.92383 6.22852 9.77148C5.89844 9.4668 5.89844 8.93359 6.22852 8.62891L8.89453 5.9375H1.125C0.667969 5.9375 0.3125 5.58203 0.3125 5.125C0.3125 4.69336 0.667969 4.3125 1.125 4.3125H8.89453L6.22852 1.64648C5.89844 1.3418 5.89844 0.808594 6.22852 0.503906C6.5332 0.173828 7.06641 0.173828 7.37109 0.503906L11.4336 4.56641C11.7637 4.87109 11.7637 5.4043 11.4336 5.70898Z" fill="#762BFF"/>
</svg>
